<svg width="680" height="560" viewBox="0 0 680 560" fill="none" xmlns="http://www.w3.org/2000/svg">
  <rect width="680" height="560" rx="38" fill="#FFFDF8"/>
  <circle cx="524" cy="118" r="56" fill="#F4CDA5" opacity="0.74"/>
  <circle cx="312" cy="304" r="168" fill="#DDEAF3" opacity="0.68"/>
  <path d="M119 382c53-61 108-88 165-80 73 10 82 76 153 78 48 1 89-27 124-84" stroke="#8BAA9A" stroke-width="10" stroke-linecap="round" stroke-dasharray="2 24"/>
  <path d="M138 328c21-50 68-86 124-86 75 0 136 61 136 136 0 20-4 38-12 55H144c-8-17-12-35-12-55 0-17 2-33 6-50z" fill="#6D5B8C" opacity="0.92"/>
  <path d="M202 433c11-62 35-101 70-117 37 18 62 57 73 117H202z" fill="#243047" opacity="0.38"/>
  <path d="M285 143L566 222 375 273 285 143z" fill="#FFF8E8" stroke="#243047" stroke-width="7" stroke-linejoin="round"/>
  <path d="M375 273l36 111 155-162" fill="#F4CDA5"/>
  <path d="M375 273l36 111 155-162" stroke="#243047" stroke-width="7" stroke-linejoin="round"/>
  <path d="M285 143l126 241 26-129" stroke="#243047" stroke-width="7" stroke-linecap="round" stroke-linejoin="round"/>
  <path d="M436 255L566 222" stroke="#243047" stroke-width="7" stroke-linecap="round"/>
  <circle cx="161" cy="148" r="14" fill="#8BAA9A"/>
  <circle cx="514" cy="406" r="10" fill="#6D5B8C" opacity=".72"/>
  <circle cx="103" cy="454" r="8" fill="#F4CDA5"/>
  <path d="M158 150c48 9 74 31 78 66" stroke="#DDEAF3" stroke-width="6" stroke-linecap="round"/>
  <text x="68" y="520" fill="#7B8190" font-family="Inter, sans-serif" font-size="22">SEALED → AVAILABLE → SALVAGED → DESTROYED</text>
</svg>
